# xmcd
#
# Track frame offsets:
#	182
#	16185
#	33025
#	46227
#	62665
#	78930
#	99925
#	116890
#	131930
#	145655
#	158150
#
# Disc length: 2321 seconds
# Revision: 6
# Processed by: cddbd v1.5.2PL0 Copyright (c) Steve Scherf et al.
# Submitted via: dBpowerAMP V12.0
#
DISCID=84090f0b
DTITLE=Lorrie Morgan - Greatest Hits
DYEAR=1995
DGENRE=Country
TTITLE0=Five Minutes
TTITLE1=Dear Me
TTITLE2=Except for Monday
TTITLE3=A Picture of Me (Without You)
TTITLE4=Watch Me
TTITLE5=Something in Red
TTITLE6=Back in Your Arms Again
TTITLE7=I Didn't Know My Own Strength
TTITLE8=Standing Tall
TTITLE9=What Part of No
TTITLE10='Til A Tear Becomes A Rose (Duet with Keith Whitley)
EXTD=
EXTT0=
EXTT1=
EXTT2=
EXTT3=
EXTT4=
EXTT5=
EXTT6=
EXTT7=
EXTT8=
EXTT9=
EXTT10=
PLAYORDER=
